<svg width="135" height="138" viewBox="0 0 135 138" fill="none" xmlns="http://www.w3.org/2000/svg">
<g clip-path="url(#clip0_2986_42)">
<rect width="135" height="138" fill="white"/>
<path d="M74.7471 45.6172C76.9795 42.93 78.0957 40.4495 78.0957 38.1758C78.0957 36.4808 77.4963 35.2612 76.2974 34.5171C75.1398 33.7316 73.2381 33.3389 70.5923 33.3389C67.9465 33.3389 64.7218 34.021 60.9185 35.3853C57.1151 36.7082 53.4564 38.5272 49.9424 40.8423C46.4697 43.1574 43.2038 45.8859 40.1445 49.0278C37.1266 52.1284 34.5015 55.4771 32.269 59.0737C27.4735 66.8045 25.0757 74.3493 25.0757 81.708C25.0757 89.1081 27.6595 95.2266 32.8271 100.063C38.8216 105.686 46.6558 108.497 56.3296 108.497C66.2515 108.497 74.9951 105.521 82.5605 99.5674C85.6198 97.1283 88.2656 94.193 90.498 90.7617C92.3584 90.6377 93.2886 91.4025 93.2886 93.0562C93.2886 93.7176 93.0819 94.5238 92.6685 95.4746C89.3612 103.288 84.0488 109.903 76.7314 115.318C65.8587 123.339 53.6838 127.349 40.2065 127.349C31.8556 127.349 24.4762 125.55 18.0684 121.954C11.1644 118.109 6.34814 112.342 3.61963 104.652C2.21403 100.684 1.51123 96.4255 1.51123 91.8779C1.51123 87.3304 2.11068 83.0516 3.30957 79.0415C4.50846 75.0314 6.18278 71.1247 8.33252 67.3213C10.5236 63.5179 13.1074 59.8799 16.084 56.4072C19.0605 52.9346 22.3265 49.6893 25.8818 46.6714C29.4785 43.6121 33.2612 40.863 37.23 38.4238C41.2401 35.9434 45.3535 33.835 49.5703 32.0986C58.376 28.3779 66.7476 26.5176 74.6851 26.5176C82.7466 26.5176 88.2243 28.7913 91.1182 33.3389C92.1517 34.9098 92.6685 36.6875 92.6685 38.6719C92.6685 40.6562 92.3584 42.3719 91.7383 43.8188C91.1182 45.2244 90.3327 46.444 89.3818 47.4775C87.3975 49.6273 85.5164 50.7021 83.7388 50.7021C82.0851 50.7021 79.584 49.4412 76.2354 46.9194C75.4912 46.3407 74.9951 45.9066 74.7471 45.6172Z" fill="#035184"/>
<g clip-path="url(#clip1_2986_42)">
<path d="M78.0034 136.703C81.505 135.625 88.1017 133.862 90.6134 132.828C92.64 131.993 94.6767 131.213 95.6367 130.255C96.595 129.297 96.52 127.667 95.54 126.683C95.54 126.683 92.7484 122.568 90.9017 121.093C89.4317 119.247 85.3067 116.452 85.3067 116.452C84.3234 115.468 82.695 115.393 81.735 116.352C80.7767 117.312 79.9967 119.348 79.1617 121.377C78.1284 123.887 76.3684 130.485 75.2867 133.987C75.1034 134.585 77.405 136.887 78.0034 136.703Z" fill="#D99E82"/>
<path d="M125.153 100.738C124.697 101.194 124.156 101.556 123.56 101.803C122.964 102.05 122.326 102.177 121.681 102.177C121.036 102.177 120.397 102.05 119.802 101.803C119.206 101.556 118.664 101.194 118.208 100.738L111.262 93.7934C110.341 92.8721 109.824 91.6231 109.824 90.3209C109.824 89.0186 110.341 87.7696 111.262 86.8484L118.208 79.9017C119.13 78.9813 120.379 78.4644 121.681 78.4644C122.983 78.4644 124.232 78.9813 125.153 79.9017L132.098 86.8467C132.555 87.3026 132.916 87.844 133.163 88.4398C133.41 89.0356 133.537 89.6743 133.537 90.3192C133.537 90.9641 133.41 91.6027 133.163 92.1986C132.916 92.7944 132.555 93.3357 132.098 93.7917L125.153 100.738Z" fill="#EA596E"/>
<path d="M95.6366 130.255L88.6866 123.305L81.7449 116.367L107.79 90.3199L121.68 104.212L95.6366 130.255Z" fill="#FFCC4D"/>
<path d="M76.0616 131.463C76.0616 131.463 73.5799 135.978 74.7999 137.198C76.0199 138.418 80.5249 135.923 80.5249 135.923C80.5249 135.923 80.4449 131.647 76.0616 131.463Z" fill="#292F33"/>
<path d="M116.472 81.6383L130.363 95.53L121.682 104.21L107.79 90.32L116.472 81.6383Z" fill="#CCD6DD"/>
<path d="M114.737 83.375L128.627 97.265L126.89 99.0017L113 85.1117L114.737 83.375ZM111.26 86.8467L125.152 100.738L123.415 102.475L109.525 88.5833L111.26 86.8467Z" fill="#99AAB5"/>
</g>
<path d="M131.798 4.52813L128.217 13.0149C125.009 11.175 121.473 10.1915 117.608 10.0643C113.744 9.93707 110.589 10.5336 108.144 11.8539C105.766 13.1764 104.528 15.3368 104.429 18.3352C104.308 21.9998 107.236 26.2651 113.213 31.1311C115.681 33.1467 118.147 35.229 120.611 37.3779C123.077 39.4601 125.166 41.8635 126.877 44.5879C128.591 47.2457 129.409 49.7407 129.332 52.0728C129.256 54.4048 128.786 56.5238 127.923 58.4298C127.128 60.2713 125.799 62.1619 123.934 64.1016C122.069 66.0413 119.217 67.5817 115.377 68.7226C111.538 69.8636 107.252 70.3562 102.522 70.2005C97.7908 70.0448 93.6117 69.3402 89.9843 68.0869C89.2887 66.93 88.9551 65.9185 88.9836 65.0523C89.0121 64.1861 89.0597 63.7541 89.1263 63.7563C89.2596 63.7607 89.7549 63.9104 90.6124 64.2054C93.3201 65.0283 96.0399 65.4847 98.7717 65.5746C104.369 65.7589 108.937 64.7753 112.476 62.6239C116.082 60.4747 117.943 57.6344 118.06 54.103C118.191 50.1051 115.468 45.7132 109.889 40.927C107.554 38.9158 105.218 36.9045 102.883 34.8933C97.3045 30.1071 94.5874 25.5153 94.7322 21.1176C94.8243 18.3192 96.0802 15.6257 98.5 13.0372C103.826 7.276 114.387 3.55479 130.184 1.8736L131.798 4.52813Z" fill="#0D8350"/>
</g>
<defs>
<clipPath id="clip0_2986_42">
<rect width="135" height="138" fill="white"/>
</clipPath>
<clipPath id="clip1_2986_42">
<rect width="60" height="60" fill="white" transform="translate(134 78) rotate(90)"/>
</clipPath>
</defs>
</svg>
